<svg viewBox="0 0 170 32" xmlns="http://www.w3.org/2000/svg"><g fill-rule="evenodd"><path d="M61.984 15.158c-1.748 0-3.123.79-3.869 2.417v-2.147h-2.611v11.387h2.611V20.92c0-2.148 1.281-3.548 3.262-3.548 1.492 0 2.401 1.13 2.401 2.938v6.506h2.588v-6.844c0-2.87-1.516-4.813-4.382-4.813m31.766 6.483v-.428c0-3.526-1.96-6.056-5.548-6.056-3.52 0-5.851 2.464-5.851 6.01 0 3.456 2.214 5.919 5.85 5.919 2.727 0 4.78-1.4 5.455-3.93h-2.68c-.491 1.4-1.632 1.941-2.82 1.941-1.772 0-3.055-1.332-3.195-3.366v-.09h8.789zm-5.548-4.564c1.888 0 2.96 1.243 3.007 2.96H85.03c.28-1.83 1.4-2.96 3.17-2.96zm13.458 2.982c-1.793-.406-2.727-.61-2.727-1.603 0-.79.84-1.424 2.145-1.424 1.539 0 2.377.7 2.587 2.034h2.378c-.28-2.576-2.005-3.909-4.941-3.909-2.634 0-4.639 1.017-4.639 3.412 0 2.484 2.005 2.87 4.428 3.433 2.028.453 2.798.611 2.798 1.605 0 1.152-1.002 1.581-2.285 1.581-1.725 0-2.727-.926-2.89-2.417H96.09c.163 2.733 2.12 4.315 5.314 4.315 2.891 0 4.779-1.175 4.779-3.592 0-2.53-2.028-2.87-4.522-3.435m15.579-2.598v-2.033h-4.336v-3.524h-2.61v1.536c0 1.446-.606 1.988-2.26 1.988h-.025v2.033h2.286v5.58c0 2.419 1.747 3.978 4.474 3.978.77 0 1.585-.137 2.238-.475v-2.17c-.793.385-1.445.476-1.98.476-1.353 0-2.123-.725-2.123-2.035v-5.354h4.336zm-105.843 4.18v-.428c0-3.526-1.958-6.056-5.546-6.056-3.52 0-5.851 2.464-5.851 6.01 0 3.456 2.213 5.919 5.85 5.919 2.727 0 4.78-1.4 5.455-3.93h-2.68c-.491 1.4-1.633 1.941-2.822 1.941-1.77 0-3.053-1.332-3.193-3.366v-.09h8.787zm-5.546-4.564c1.886 0 2.96 1.243 3.007 2.96H2.68c.28-1.83 1.4-2.96 3.17-2.96zm16.942-1.649v1.763h-.022c-.583-1.243-2.074-1.987-3.776-1.987-3.38 0-5.549 2.438-5.549 5.873 0 3.501 2.17 5.964 5.549 5.964 1.678 0 3.123-.814 3.776-2.168h.022v1.941h2.589V15.43h-2.589zm.117 5.762c0 2.26-1.375 3.773-3.496 3.773-2.05 0-3.426-1.56-3.426-3.886 0-2.26 1.375-3.796 3.426-3.796 2.097 0 3.473 1.536 3.496 3.75v.159zm10.911-1.131c-1.795-.406-2.727-.61-2.727-1.603 0-.79.838-1.424 2.144-1.424 1.538 0 2.377.7 2.586 2.034h2.378c-.28-2.576-2.004-3.909-4.942-3.909-2.634 0-4.638 1.017-4.638 3.412 0 2.484 2.004 2.87 4.43 3.433 2.026.453 2.796.611 2.796 1.605 0 1.152-1.002 1.581-2.283 1.581-1.726 0-2.729-.926-2.891-2.417h-2.425c.164 2.733 2.122 4.315 5.316 4.315 2.889 0 4.778-1.175 4.778-3.592 0-2.53-2.028-2.87-4.522-3.435m42.255 6.757c.678-1.147 1.997-3.213 2.87-5.152a92.035 92.035 0 0 0 2.485-6.237h-2.834c-.58 2.246-2.477 7.092-3.804 9.057-1.326-1.965-3.224-6.81-3.803-9.057h-2.834c.19.569 1.355 3.728 2.483 6.237.874 1.94 2.193 4.005 2.871 5.152h2.566zm-23.14-11.388c-.263 1.222-2.115 12.161-9.556 16.557l-.091-.086-.01-.01c-.405-.446-1.153-1.267-1.642-1.797 1.397-.718 2.833-1.836 3.846-3.107-.842-1.073-2.579-3.857-3.387-5.69-1.224-2.79-2.001-5.44-2.001-5.867h2.818c.183 1.733 1.828 6.07 4.06 9.268 1.885-3.197 3.02-7.732 3.176-9.268h2.787z" fill="#4F034F"/><path d="M134.562 8.94c-3.602.248-7.156.646-10.655 1.185-.104.016-.164.12-.121.212 1.593 3.34 3.37 6.638 5.34 9.882 1.969 3.244 4.086 6.36 6.335 9.346.06.081.187.086.255.01a116.766 116.766 0 0 0 3.096-3.646 152.882 152.882 0 0 1-4.25-16.989" fill="#E6268C"/><path d="M169.62 9.138a178.961 178.961 0 0 0-19.72-5.554A180.838 180.838 0 0 0 133.438.746c-.105-.014-.195.07-.182.17.362 2.67.797 5.346 1.306 8.024.347-.024.695-.05 1.043-.07a128.19 128.19 0 0 1 14.484-.062c.116.006.188.124.134.221a112.655 112.655 0 0 1-11.411 16.9 154.642 154.642 0 0 0 1.892 5.68c.033.094.153.133.241.078 4.621-2.853 9.14-5.94 13.533-9.273A167.749 167.749 0 0 0 169.68 9.386c.082-.078.05-.21-.06-.248" fill="#FB0"/><path d="M150.223 9.03c.054-.098-.017-.216-.134-.222-4.767-.249-9.6-.236-14.484.062-.348.02-.696.045-1.043.07a152.545 152.545 0 0 0 4.25 16.989 112.61 112.61 0 0 0 11.411-16.9" fill="#4E0250"/></g></svg>
