<svg width="1366" height="801" xmlns="http://www.w3.org/2000/svg" xmlns:xlink="http://www.w3.org/1999/xlink">
  <defs>
    <path id="a" d="M0 0h1366v803H0z"/>
  </defs>
  <g transform="translate(0 -2)" fill="none" fill-rule="evenodd">
    <mask id="b" fill="#fff">
      <use xlink:href="#a"/>
    </mask>
    <g mask="url(#b)">
      <path d="M-400 14.2834057V423l1627 96V292.103969C608.333333 54.3060729 66-38.3007814-400 14.2834057z" fill="#5A0359"/>
      <path d="M-.697789 1.9551846C244.738059 15.8111538 561.157023 70.1851679 1071 192l-357.78061-50.359544-97.04682 7.685708C205.349863 225.237379-.099079 256.9314-.17426 244.408229-.543617 182.883087-.717394 102.065405-.697789 1.9551846z" fill="#3ED1DC"/>
      <path d="M1375 89v208.011391L-44 256C258 144.666667 731 89 1375 89z" fill="#E6268C"/>
      <path d="M724.76117 112.793196c231.07229 45.398576 458.92499 101.195943 655.17503 161.673621-.1455 4.484664-.5076 9.499514-1.08628 15.044548h-316.67868L.158027 289.000076v-69.957159c259.104227-53.733037 500.638608-89.149611 724.603143-106.249721z" fill="#5A0359"/>
      <path d="M1366 275H-307v240.896031c697.121695 177.369708 1178.71093 273.19559 1444.76772 287.477646C1216.89049 807.621025 1294.36323 804.601778 1367 803c48.52497-1.070068 48.19164-177.070068-1-528z" fill="#5A0359"/>
      <path d="M-.335816 425C339.225028 526.584045 919.6477 679.445356 1366.90286 721.786483c.50074 50.421598-1.14018 34.055281-.28456 81.580096-514.41476 1.570228-968.034577-.273423-1367.6183-.273423C-.374885 756.982329-1.414139 778.524151-.335816 425z" fill="#880076"/>
    </g>
  </g>
</svg>
