<svg viewBox="0 0 20 20" xmlns="http://www.w3.org/2000/svg"><path d="M11.296 10l7.6019-7.6019c.35842-.35842.35842-.93775 0-1.2962-.35842-.35842-.93775-.35842-1.2962 0L9.9998 8.7038 2.3979 1.1019c-.35842-.35842-.93775-.35842-1.2962 0-.35842.35842-.35842.93775 0 1.2962L8.7036 10l-7.6019 7.6019c-.35842.35842-.35842.93775 0 1.2962.17875.17875.41342.26858.64808.26858.23467 0 .46933-.089833.64808-.26858l7.6019-7.6019 7.6019 7.6019c.17875.17875.41342.26858.64808.26858.23467 0 .46933-.089833.64808-.26858.35842-.35842.35842-.93775 0-1.2962L11.29592 10z" fill="#87027B" fill-rule="evenodd"/></svg>
