<svg viewBox="0 0 42 43" xmlns="http://www.w3.org/2000/svg"><g fill="none" fill-rule="evenodd"><ellipse cx="21" cy="21.5" rx="20.5" ry="21" fill="#fff" stroke="#87027B"/><path d="M30.353 16.03c-.63354.28785-1.3149.4824-2.0297.57005.72958-.44803 1.2898-1.1571 1.5537-2.0019-.68282.41483-1.439.71572-2.2444.87791-.64438-.70308-1.563-1.1426-2.5795-1.1426-1.9521 0-3.5342 1.62-3.5342 3.6184 0 .28371.030968.55996.09147.82462-2.9375-.1507-5.5417-1.5917-7.2849-3.7807-.30425.53418-.47852 1.1557-.47852 1.8189 0 1.2556.6237 2.3629 1.5723 3.012-.57934-.018544-1.1244-.18139-1.6009-.4526-.0006784.015245-.0006784.030282-.0006784.045416 0 1.7535 1.2184 3.2157 2.8351 3.5483-.29632.082709-.60848.12645-.93085.12645-.22797 0-.44901-.022086-.66519-.064516.45006 1.4375 1.7551 2.4838 3.3019 2.5131-1.2106.97068-2.7343 1.5489-4.3903 1.5489-.28509 0-.56663-.01719-.84335-.050451 1.5648 1.0267 3.4223 1.6255 5.4185 1.6255 6.5008 0 10.055-5.5135 10.055-10.296 0-.15681-.0035276-.31255-.0099383-.46773.69026-.51058 1.2894-1.1477 1.7635-1.8735" fill="#87027B"/></g></svg>
