<svg viewBox="0 0 42 43" xmlns="http://www.w3.org/2000/svg"><g fill="none" fill-rule="evenodd"><ellipse cx="21" cy="21.5" rx="20.5" ry="21" fill="#fff" stroke="#87027B"/><path d="M18.062 14.333c-2.2402 0-4.062 1.8662-4.062 4.1598v6.0148c0 2.2936 1.8218 4.1588 4.062 4.1588h5.9101c2.2402 0 4.062-1.8652 4.062-4.1588v-6.0148c0-2.2936-1.8218-4.1598-4.062-4.1598H18.062zm0 1.2322h5.9101c1.5944 0 2.8595 1.2952 2.8595 2.9276v6.0148c0 1.6324-1.2651 2.9266-2.8595 2.9266H18.062c-1.5944 0-2.8585-1.2942-2.8585-2.9266v-6.0148c0-1.6324 1.2641-2.9276 2.8585-2.9276zm6.7215 1.2322c-.4649 0-.84157.38563-.84157.8616 0 .47599.37666.86161.84157.86161s.84157-.38563.84157-.86161c0-.47597-.37667-.8616-.84157-.8616zm-3.7664 1.0119c-1.9837 0-3.6046 1.6594-3.6046 3.6904 0 2.031 1.6208 3.6904 3.6046 3.6904 1.9837 0 3.6056-1.6594 3.6056-3.6904 0-2.031-1.6218-3.6904-3.6056-3.6904zm0 1.2322c1.3334 0 2.402 1.093 2.402 2.4582 0 1.3652-1.0686 2.4582-2.402 2.4582-1.3334 0-2.401-1.093-2.401-2.4582 0-1.3652 1.0676-2.4582 2.401-2.4582z" fill="#87027B"/></g></svg>
