<svg viewBox="0 0 42 43" xmlns="http://www.w3.org/2000/svg"><g fill="none" fill-rule="evenodd"><ellipse cx="21" cy="21.5" rx="20.5" ry="21" fill="#fff" stroke="#87027B"/><path d="M15.776 14.333c1.0743 0 1.7325.72032 1.7529 1.6694 0 .92821-.68115 1.6694-1.7762 1.6694h-.017438c-1.0538 0-1.7354-.74123-1.7354-1.6694 0-.94911.70203-1.6694 1.7762-1.6694h-.0000287zm9.2596 4.4359c2.066 0 3.6107 1.3815 3.6107 4.3525v5.5449h-3.1389V23.491c0-1.3003-.45356-2.1882-1.5899-2.1882-.86749 0-1.3861.60294-1.6131 1.1805-.082918.20666-.098997.49198-.098997.78106v5.4018h-3.1448s.041212-8.7632 0-9.6708h3.1448v1.3654c.41743-.65904 1.1652-1.5919 2.8303-1.5919zm-10.849.22657h3.1389v9.6708h-3.1389v-9.6708z" fill="#87027B"/></g></svg>
